<svg width="75" height="75" viewBox="0 0 75 75" fill="none" xmlns="http://www.w3.org/2000/svg">
<path d="M42.1219 17.9657C44.8801 18.9256 47.271 20.7203 48.9628 23.1009C50.6545 25.4814 51.5632 28.3296 51.5625 31.2501V42.8126L58.0406 48.8594C58.2693 49.0735 58.4283 49.3514 58.4971 49.657C58.5659 49.9625 58.5413 50.2817 58.4264 50.5731C58.3115 50.8645 58.1117 51.1147 57.8529 51.2911C57.5941 51.4675 57.2882 51.5621 56.975 51.5626H18.0281C17.714 51.5634 17.4069 51.4695 17.1469 51.2932C16.8869 51.1168 16.686 50.8662 16.5706 50.574C16.4553 50.2818 16.4306 49.9616 16.5 49.6552C16.5693 49.3488 16.7294 49.0704 16.9594 48.8563L23.4375 42.8126V31.2501C23.4369 28.3296 24.3455 25.4814 26.0372 23.1009C27.729 20.7203 30.1199 18.9256 32.8781 17.9657C33.0628 16.8735 33.6284 15.882 34.4744 15.1671C35.3204 14.4521 36.3923 14.0598 37.5 14.0598C38.6077 14.0598 39.6796 14.4521 40.5256 15.1671C41.3717 15.882 41.9372 16.8735 42.1219 17.9657Z" stroke="#2B1E49" stroke-linecap="round" stroke-linejoin="round"/>
<path d="M33.0781 57.8125C33.4002 58.7281 33.9986 59.5212 34.7907 60.0822C35.5827 60.6432 36.5294 60.9445 37.5 60.9445C38.4706 60.9445 39.4173 60.6432 40.2093 60.0822C41.0014 59.5212 41.5998 58.7281 41.9219 57.8125H33.0781Z" stroke="#2B1E49"/>
</svg>
