<svg width="20" height="20" viewBox="0 0 20 20" fill="none" xmlns="http://www.w3.org/2000/svg">
<path d="M2.18748 11.6877L0.833313 10.7085L4.99998 4.04183L7.49998 6.9585L10.8333 1.54183L13.3333 5.29183L16.1458 0.833496L17.5 1.81266L13.375 8.35433L10.8958 4.62516L7.72915 9.771L5.20831 6.8335L2.18748 11.6877ZM12.0833 15.0002C12.6666 15.0002 13.1597 14.7988 13.5625 14.396C13.9653 13.9932 14.1666 13.5002 14.1666 12.9168C14.1666 12.3335 13.9653 11.8404 13.5625 11.4377C13.1597 11.0349 12.6666 10.8335 12.0833 10.8335C11.5 10.8335 11.0069 11.0349 10.6041 11.4377C10.2014 11.8404 9.99998 12.3335 9.99998 12.9168C9.99998 13.5002 10.2014 13.9932 10.6041 14.396C11.0069 14.7988 11.5 15.0002 12.0833 15.0002ZM16.3333 18.3335L14.0833 16.0835C13.7916 16.2779 13.4758 16.4238 13.1358 16.521C12.7958 16.6182 12.445 16.6668 12.0833 16.6668C11.0416 16.6668 10.1564 16.3024 9.42748 15.5735C8.69859 14.8446 8.33387 13.9591 8.33331 12.9168C8.33276 11.8746 8.69748 10.9893 9.42748 10.261C10.1575 9.53266 11.0428 9.16794 12.0833 9.16683C13.1239 9.16572 14.0094 9.53044 14.74 10.261C15.4705 10.9916 15.835 11.8768 15.8333 12.9168C15.8333 13.2779 15.7847 13.6288 15.6875 13.9693C15.5903 14.3099 15.4444 14.6257 15.25 14.9168L17.5 17.1668L16.3333 18.3335Z" fill="#2B1E49"/>
</svg>
