<svg width="20" height="20" viewBox="0 0 20 20" fill="none" xmlns="http://www.w3.org/2000/svg">
<path d="M17.9664 2.08009C17.9093 2.01737 17.8401 1.96688 17.763 1.93166C17.6858 1.89644 17.6023 1.87723 17.5176 1.87518C17.4328 1.87314 17.3485 1.8883 17.2697 1.91976C17.191 1.95122 17.1194 1.99832 17.0594 2.05821L16.5762 2.53907C16.5176 2.59767 16.4847 2.67713 16.4847 2.75997C16.4847 2.84282 16.5176 2.92227 16.5762 2.98087L17.0191 3.42306C17.0482 3.45223 17.0827 3.47538 17.1207 3.49118C17.1587 3.50697 17.1995 3.5151 17.2406 3.5151C17.2818 3.5151 17.3225 3.50697 17.3605 3.49118C17.3985 3.47538 17.4331 3.45223 17.4621 3.42306L17.9332 2.95431C18.1715 2.71642 18.1937 2.32892 17.9664 2.08009ZM15.5992 3.51564L8.54764 10.5547C8.50489 10.5973 8.47381 10.6501 8.45741 10.7082L8.13124 11.6797C8.12342 11.7061 8.12287 11.734 8.12963 11.7607C8.1364 11.7873 8.15023 11.8117 8.16967 11.8311C8.18911 11.8505 8.21344 11.8644 8.24009 11.8711C8.26674 11.8779 8.29472 11.8774 8.32108 11.8695L9.29178 11.5434C9.34985 11.527 9.40272 11.4959 9.4453 11.4531L16.4844 4.40079C16.5495 4.33497 16.586 4.24612 16.586 4.15353C16.586 4.06094 16.5495 3.97208 16.4844 3.90626L16.0957 3.51564C16.0298 3.44992 15.9405 3.41302 15.8474 3.41302C15.7544 3.41302 15.6651 3.44992 15.5992 3.51564Z" fill="black"/>
<path d="M15.0914 7.56484L10.3301 12.3355C10.146 12.52 9.91986 12.6569 9.67109 12.7344L8.65937 13.073C8.41927 13.1409 8.16543 13.1434 7.924 13.0805C7.68258 13.0175 7.46231 12.8913 7.28589 12.7149C7.10947 12.5385 6.98328 12.3182 6.92033 12.0768C6.85737 11.8354 6.85993 11.5815 6.92773 11.3414L7.26641 10.3297C7.34368 10.081 7.48029 9.85483 7.66445 9.6707L12.4352 4.90859C12.4789 4.86491 12.5087 4.80924 12.5208 4.74863C12.5329 4.68801 12.5267 4.62517 12.5031 4.56806C12.4795 4.51094 12.4394 4.46211 12.3881 4.42775C12.3367 4.39339 12.2763 4.37503 12.2145 4.375H4.0625C3.48234 4.375 2.92594 4.60547 2.5157 5.0157C2.10547 5.42594 1.875 5.98234 1.875 6.5625V15.9375C1.875 16.5177 2.10547 17.0741 2.5157 17.4843C2.92594 17.8945 3.48234 18.125 4.0625 18.125H13.4375C14.0177 18.125 14.5741 17.8945 14.9843 17.4843C15.3945 17.0741 15.625 16.5177 15.625 15.9375V7.78555C15.625 7.72374 15.6066 7.66333 15.5722 7.61195C15.5379 7.56057 15.4891 7.52054 15.4319 7.49692C15.3748 7.47329 15.312 7.46714 15.2514 7.47923C15.1908 7.49132 15.1351 7.52111 15.0914 7.56484Z" fill="#2B1E49"/>
</svg>
