<svg width="20" height="20" viewBox="0 0 20 20" fill="none" xmlns="http://www.w3.org/2000/svg">
<path d="M16.1872 3.81796C15.3761 2.99888 14.4112 2.34812 13.3479 1.90308C12.2846 1.45804 11.1438 1.22747 9.99114 1.22464C8.83845 1.2218 7.69656 1.44674 6.63108 1.88655C5.56559 2.32635 4.5975 2.97235 3.78242 3.78743C2.96734 4.6025 2.32135 5.57059 1.88154 6.63608C1.44174 7.70157 1.21679 8.84346 1.21963 9.99615C1.22247 11.1488 1.45303 12.2896 1.89808 13.3529C2.34312 14.4162 2.99387 15.3811 3.81295 16.1922C4.624 17.0113 5.5889 17.662 6.65222 18.1071C7.71553 18.5521 8.85629 18.7827 10.009 18.7855C11.1617 18.7883 12.3036 18.5634 13.369 18.1236C14.4345 17.6838 15.4026 17.0378 16.2177 16.2227C17.0328 15.4076 17.6788 14.4395 18.1186 13.3741C18.5584 12.3086 18.7833 11.1667 18.7805 10.014C18.7777 8.8613 18.5471 7.72053 18.102 6.65722C17.657 5.59391 17.0062 4.62901 16.1872 3.81796ZM2.50006 10.0051C2.49977 9.34128 2.58778 8.68041 2.76178 8.03983C3.0485 8.65702 3.4649 9.19022 3.74811 9.82342C4.11412 10.6375 5.09694 10.4117 5.53092 11.125C5.91608 11.7582 5.50475 12.559 5.79303 13.2215C6.0024 13.7023 6.49615 13.8074 6.83678 14.159C7.18483 14.5137 7.1774 14.9996 7.23053 15.4621C7.29043 16.0055 7.38767 16.5442 7.52155 17.0742C7.52155 17.0781 7.52155 17.0824 7.52467 17.0863C4.60162 16.0598 2.50006 13.2734 2.50006 10.0051ZM10.0001 17.5051C9.58121 17.505 9.1631 17.4699 8.75006 17.4004C8.75436 17.2945 8.75631 17.1957 8.76686 17.1269C8.86178 16.5058 9.17272 15.8984 9.59225 15.4336C10.0067 14.975 10.5747 14.6648 10.9247 14.1445C11.2676 13.6367 11.3704 12.9531 11.229 12.3598C11.0208 11.4832 9.82975 11.1906 9.18756 10.7152C8.81842 10.4418 8.4899 10.0191 8.00514 9.98475C7.7817 9.96913 7.59459 10.0172 7.37311 9.96014C7.16998 9.90741 7.01061 9.79803 6.7942 9.82655C6.3899 9.87967 6.13483 10.3117 5.70045 10.2531C5.28834 10.198 4.86373 9.71561 4.76998 9.32303C4.64967 8.81835 5.04889 8.65467 5.47662 8.60975C5.65514 8.591 5.85553 8.57069 6.02701 8.63632C6.25279 8.71991 6.35944 8.941 6.56217 9.05272C6.94225 9.26132 7.0192 8.92811 6.961 8.59061C6.87389 8.08514 6.77233 7.87928 7.22311 7.53124C7.53561 7.29139 7.8028 7.11796 7.7528 6.6871C7.72311 6.43397 7.58444 6.31952 7.71373 6.06757C7.81178 5.87577 8.08092 5.70272 8.25631 5.58827C8.70905 5.29296 10.1958 5.31483 9.58834 4.48827C9.40983 4.24569 9.08053 3.8121 8.76803 3.75272C8.3774 3.67889 8.20397 4.11483 7.9317 4.30702C7.65045 4.50585 7.10279 4.73163 6.82115 4.42421C6.44225 4.01053 7.07233 3.87499 7.21178 3.58593C7.27623 3.45116 7.21178 3.26405 7.10319 3.08788C7.24407 3.0285 7.3873 2.97342 7.53287 2.92264C7.6241 2.99003 7.73233 3.03061 7.84537 3.03983C8.1067 3.05702 8.35319 2.91561 8.58131 3.09374C8.83444 3.28905 9.01686 3.53592 9.35279 3.59686C9.67779 3.65585 10.0219 3.46639 10.1024 3.13358C10.1512 2.93124 10.1024 2.71757 10.0555 2.50858C11.5165 2.51699 12.9427 2.95451 14.1571 3.76678C14.079 3.7371 13.9856 3.74061 13.8704 3.79413C13.6333 3.90428 13.2973 4.18475 13.2696 4.46288C13.238 4.7785 13.7036 4.82303 13.9247 4.82303C14.2567 4.82303 14.593 4.6746 14.486 4.291C14.4395 4.1246 14.3762 3.95155 14.2743 3.84686C14.5194 4.0169 14.7542 4.20134 14.9774 4.39921C14.9739 4.40272 14.9704 4.40585 14.9669 4.40975C14.7419 4.64413 14.4805 4.82968 14.3266 5.11483C14.218 5.31561 14.0958 5.41093 13.8758 5.46288C13.7547 5.49139 13.6165 5.50194 13.5149 5.58319C13.2321 5.80585 13.393 6.341 13.661 6.50155C13.9997 6.70428 14.502 6.60897 14.7575 6.31952C14.9571 6.09296 15.0747 5.6996 15.4337 5.69999C15.5917 5.69966 15.7435 5.76154 15.8563 5.87225C16.0047 6.02616 15.9755 6.16991 16.0071 6.3621C16.063 6.7035 16.3641 6.51835 16.5473 6.34608C16.6809 6.58374 16.8014 6.8285 16.9083 7.07928C16.7067 7.36952 16.5465 7.68592 16.0618 7.34764C15.7715 7.14491 15.593 6.85077 15.2286 6.75936C14.9102 6.68124 14.584 6.76249 14.2696 6.81678C13.9122 6.87889 13.4883 6.90624 13.2172 7.17694C12.9551 7.43788 12.8165 7.7871 12.5376 8.04921C11.9981 8.55702 11.7704 9.11132 12.1196 9.82928C12.4555 10.5195 13.1583 10.8941 13.9165 10.8449C14.6614 10.7953 15.4352 10.3633 15.4137 11.4457C15.4059 11.8289 15.486 12.0941 15.6036 12.45C15.7126 12.7781 15.7051 13.0961 15.7301 13.4348C15.7539 13.8313 15.8159 14.2247 15.9153 14.6094C15.2151 15.5108 14.3182 16.2404 13.293 16.7422C12.2678 17.2441 11.1415 17.505 10.0001 17.5051Z" fill="#2B1E49"/>
</svg>
